<svg xmlns="http://www.w3.org/2000/svg" viewBox="0 0 16 16">
  <path style="stroke:none;fill-rule:nonzero;fill:rgb(0%,0%,0%);fill-opacity:1;"
    d="M 9.507812 15.671875 L 4.949219 10.007812 L 9.320312 5.78125 C 9.398438 5.695312 9.371094 5.453125 9.152344 5.453125 L 6.992188 5.453125 C 6.882812 5.453125 6.773438 5.507812 6.664062 5.617188 L 2.527344 9.796875 L 2.527344 0.234375 C 2.527344 0.078125 2.449219 0 2.292969 0 L 0.671875 0 C 0.515625 0 0.4375 0.078125 0.4375 0.234375 L 0.4375 15.765625 C 0.4375 15.921875 0.515625 16 0.671875 16 L 2.292969 16 C 2.449219 16 2.527344 15.921875 2.527344 15.765625 L 2.527344 12.359375 L 3.492188 11.445312 L 6.945312 15.835938 C 7.039062 15.945312 7.148438 16.003906 7.273438 16.003906 L 9.363281 16.003906 C 9.472656 16.003906 9.535156 15.972656 9.550781 15.910156 Z M 9.507812 15.671875 "/>
</svg>